<?xml version="1.0" standalone="no"?><!DOCTYPE svg PUBLIC "-//W3C//DTD SVG 1.1//EN" "http://www.w3.org/Graphics/SVG/1.1/DTD/svg11.dtd"><svg t="1727419980594" class="icon" viewBox="0 0 1024 1024" version="1.1" xmlns="http://www.w3.org/2000/svg" p-id="4336" xmlns:xlink="http://www.w3.org/1999/xlink" width="200" height="200"><path d="M1007.2 542.048l-145.152 145.152c-6.24 6.24-16.384 6.24-22.624 0l-22.656-22.656c-6.24-6.24-6.24-16.384 0-22.624L914.752 544 544 544l0 160 0 0 0 192 0 18.752 97.952-97.952c6.24-6.24 16.384-6.24 22.624 0l22.656 22.656c6.24 6.24 6.24 16.384 0 22.624l-145.152 145.152C541.76 1006.496 524.416 1024 512 1024s-28.736-17.504-30.048-16.8l-145.152-145.152c-6.24-6.24-6.24-16.384 0-22.624l22.656-22.656c6.24-6.24 16.384-6.24 22.624 0L480 914.752 480 896l0-128 0-64 0-160L109.248 544l97.952 97.952c6.24 6.24 6.24 16.384 0 22.624l-22.656 22.656c-6.24 6.24-16.384 6.24-22.624 0l-145.152-145.152C17.504 541.76 0 524.416 0 512s17.504-28.736 16.8-30.048l145.152-145.152c6.24-6.24 16.384-6.24 22.624 0l22.656 22.656c6.24 6.24 6.24 16.384 0 22.624L109.248 480 480 480 480 109.248l-97.952 97.952c-6.24 6.24-16.384 6.24-22.624 0l-22.656-22.656c-6.24-6.24-6.24-16.384 0-22.624l145.152-145.152C482.24 17.504 499.584 0 512 0s28.736 17.504 30.048 16.8l145.152 145.152c6.24 6.24 6.24 16.384 0 22.624l-22.656 22.656c-6.24 6.24-16.384 6.24-22.624 0L544 109.248 544 480l370.752 0-97.952-97.952c-6.24-6.24-6.24-16.384 0-22.624l22.656-22.656c6.24-6.24 16.384-6.24 22.624 0l145.152 145.152C1006.496 482.24 1024 499.584 1024 512S1006.496 540.736 1007.2 542.048z" fill="#272636" p-id="4337"></path></svg>